<?xml version="1.0" standalone="no"?>
<!DOCTYPE svg PUBLIC "-//W3C//DTD SVG 20010904//EN"
 "http://www.w3.org/TR/2001/REC-SVG-20010904/DTD/svg10.dtd">
<svg version="1.0" xmlns="http://www.w3.org/2000/svg"
 width="144.000000pt" height="144.000000pt" viewBox="0 0 144.000000 144.000000"
 preserveAspectRatio="xMidYMid meet">
<metadata>
Created by potrace 1.14, written by Peter Selinger 2001-2017
</metadata>
<g transform="translate(0.000000,144.000000) scale(0.100000,-0.100000)"
fill="#000000" stroke="none">
<path d="M1237 1173 c-4 -3 -143 -7 -309 -8 -167 -1 -314 -5 -327 -8 -106 -27
-185 -72 -256 -145 -30 -30 -57 -63 -61 -74 -3 -10 -10 -18 -16 -18 -6 0 -8
-3 -5 -6 4 -4 0 -19 -8 -33 -23 -41 -46 -144 -35 -155 7 -7 10 -2 11 12 2 34
3 40 12 48 4 4 7 16 7 26 0 10 5 18 10 18 6 0 10 7 10 15 0 8 5 15 10 15 6 0
10 6 10 14 0 20 98 106 156 138 27 14 65 30 84 34 19 4 151 8 293 10 141 1
268 5 281 8 23 6 23 5 20 -62 -4 -75 -8 -108 -24 -232 -17 -123 -17 -122 -34
-174 -38 -112 -127 -200 -252 -251 -72 -29 -58 -38 26 -16 94 25 165 66 238
138 82 81 121 164 137 288 2 17 4 30 5 30 3 0 7 37 14 120 3 39 8 81 10 95 3
14 8 60 11 103 5 70 0 89 -18 70z"/>
<path d="M977 964 c-3 -5 -99 -8 -214 -8 -220 2 -285 -6 -363 -46 -54 -28
-122 -98 -149 -154 -13 -25 -28 -46 -34 -46 -7 0 -5 -5 3 -10 11 -7 11 -10 2
-10 -7 0 -10 -4 -7 -10 3 -5 3 -10 -2 -10 -4 0 -8 -41 -8 -90 0 -93 6 -110 23
-62 12 34 57 83 95 102 19 10 67 14 155 14 l127 1 -1 -50 c-1 -47 -6 -77 -20
-148 -6 -31 -53 -81 -96 -103 -16 -8 -28 -17 -28 -19 0 -3 25 -4 54 -3 30 1
53 4 51 7 -3 2 12 12 31 23 44 23 93 75 100 106 4 12 10 22 15 22 5 0 8 3 8 8
-1 4 -1 9 0 12 1 3 4 23 6 45 2 22 6 67 10 100 4 33 8 71 9 85 l1 25 -155 1
c-158 0 -238 -12 -267 -42 -8 -8 -17 -14 -21 -14 -4 0 -25 -25 -47 -55 -22
-30 -40 -55 -42 -55 -1 0 3 15 8 33 33 102 91 171 177 209 42 19 69 21 260 24
l212 3 -5 -47 c-22 -226 -21 -219 -30 -257 -21 -85 -105 -179 -186 -205 -49
-17 -50 -29 -1 -26 69 5 154 48 213 107 41 41 92 125 95 154 0 6 4 26 7 45 4
19 9 52 12 73 3 20 7 52 10 70 2 17 7 60 9 95 3 34 7 66 10 71 3 4 -1 16 -8
26 -7 10 -15 14 -19 9z"/>
<path d="M294 524 c-19 -7 -43 -21 -53 -33 -10 -11 -20 -19 -23 -16 -6 6 -12
-94 -9 -142 1 -22 5 -23 90 -23 50 0 93 5 96 10 4 6 9 9 13 7 8 -4 56 46 60
62 1 6 5 28 8 49 3 20 7 46 9 58 2 11 0 25 -3 30 -10 13 -148 12 -188 -2z"/>
</g>
</svg>
