<?xml version="1.0" standalone="no"?>
<svg id="wrapper" viewBox="0 0 860 1021.361" preserveAspectRatio="xMinYMin" height="1021.361" width="860" style="background-color: rgb(255, 255, 255);"><g id="map-group"><svg xmlns="http://www.w3.org/2000/svg" id="map" width="860" height="1021.361" version="1.1" viewBox="0 0 860 1021.361" preserveAspectRatio="xMinYMin"><defs><pattern id="circles3" width="10" height="10" patternUnits="userSpaceOnUse">    <rect width="10" height="10" fill="#fff"></rect>    <circle cx="4" cy="4" r="2" fill="#000"></circle>    </pattern><pattern id="diagonal1" width="10" height="10" patternUnits="userSpaceOnUse">    <rect width="10" height="10" fill="#fff"></rect>    <path id="pattern0" d="M-1,1 l2,-2 M0,10 l10,-10 M9,11 l2,-2" stroke="#000" stroke-width="1"></path>    </pattern><pattern id="diagonal3" width="10" height="10" patternUnits="userSpaceOnUse">    <rect width="10" height="10" fill="#fff"></rect>    <path id="pattern1" d="M-1,1 l2,-2 M0,10 l10,-10 M9,11 l2,-2" stroke="#000" stroke-width="3"></path>    </pattern><pattern id="vertical1" width="10" height="10" patternUnits="userSpaceOnUse">    <rect width="10" height="10" fill="#fff"></rect>    <rect x="3" y="0" width="1" height="10" fill="#000"></rect>    </pattern><pattern id="vertical3" width="10" height="10" patternUnits="userSpaceOnUse">    <rect width="10" height="10" fill="#fff"></rect>    <rect x="3" y="0" width="3" height="10" fill="#000"></rect>    </pattern><pattern id="horizontal1" width="10" height="10" patternUnits="userSpaceOnUse">    <rect width="10" height="10" fill="#fff"></rect>    <rect x="0" y="4" width="10" height="1" fill="#000"></rect>    </pattern><pattern id="horizontal3" width="10" height="10" patternUnits="userSpaceOnUse">    <rect width="10" height="10" fill="#fff"></rect>    <rect x="0" y="4" width="10" height="3" fill="#000"></rect>    </pattern><pattern id="crosshatch" width="8" height="8" patternUnits="userSpaceOnUse">    <rect width="8" height="8" fill="#fff"></rect>    <path id="pattern2" d="M0 0L8 8ZM8 0L0 8Z" stroke-width="0.5" stroke="#aaa"></path>    </pattern><pattern id="subtlepatch" width="5" height="5" patternUnits="userSpaceOnUse">    <rect width="5" height="5" fill="#fff"></rect>    <rect x="2" y="2" width="1" height="1" fill="#000"></rect>    </pattern><pattern id="checkers" width="8" height="8" patternUnits="userSpaceOnUse">    <rect width="8" height="8" fill="#fff"></rect>    <path id="pattern3" fill="#000" fill-rule="evenodd" d="M0 0h4v4H0V0zm4 4h4v4H4V4z"></path>    </pattern><pattern id="raindrops" width="10" height="10" patternUnits="userSpaceOnUse">    <rect width="10" height="10" fill="#fff"></rect>    <path id="pattern4" fill="#000" d="M0 38.59l2.83-2.83 1.41 1.41L1.41 40H0v-1.41zM0 1.4l2.83 2.83 1.41-1.41L1.41 0H0v1.41zM38.59 40l-2.83-2.83 1.41-1.41L40 38.59V40h-1.41zM40 1.41l-2.83 2.83-1.41-1.41L38.59 0H40v1.41zM20 18.6l2.83-2.83 1.41 1.41L21.41 20l2.83 2.83-1.41 1.41L20 21.41l-2.83 2.83-1.41-1.41L18.59 20l-2.83-2.83 1.41-1.41L20 18.59z"></path>    </pattern><pattern id="texture" width="4" height="4" patternUnits="userSpaceOnUse">    <rect width="4" height="4" fill="#fff"></rect>    <path id="pattern5" fill="#000" d="M1 3h1v1H1V3zm2-2h1v1H3V1z"></path>    </pattern><pattern id="circles3_a03500_000000" width="10" height="10" patternUnits="userSpaceOnUse">    <rect width="10" height="10" fill="#a03500"></rect>    <circle cx="4" cy="4" r="2" fill="#000000"></circle>    </pattern><pattern id="diagonal1_d9b400_535353" width="10" height="10" patternUnits="userSpaceOnUse">    <rect width="10" height="10" fill="#d9b400"></rect>    <path id="pattern0" d="M-1,1 l2,-2 M0,10 l10,-10 M9,11 l2,-2" stroke="#535353" stroke-width="1"></path>    </pattern><pattern id="diagonal3_3264c8_ffffff" width="10" height="10" patternUnits="userSpaceOnUse">    <rect width="10" height="10" fill="#3264c8"></rect>    <path id="pattern1" d="M-1,1 l2,-2 M0,10 l10,-10 M9,11 l2,-2" stroke="#ffffff" stroke-width="3"></path>    </pattern><pattern id="horizontal1_72b38e_000000" width="10" height="10" patternUnits="userSpaceOnUse">    <rect width="10" height="10" fill="#72b38e"></rect>    <rect x="0" y="4" width="10" height="1" fill="#000000"></rect>    </pattern><pattern id="horizontal3_986ba1_ffffff" width="10" height="10" patternUnits="userSpaceOnUse">    <rect width="10" height="10" fill="#986ba1"></rect>    <rect x="0" y="4" width="10" height="3" fill="#ffffff"></rect>    </pattern><pattern id="vertical1_b9a087_ffffff" width="10" height="10" patternUnits="userSpaceOnUse">    <rect width="10" height="10" fill="#b9a087"></rect>    <rect x="3" y="0" width="1" height="10" fill="#ffffff"></rect>    </pattern><pattern id="vertical3_4c91bf_ffff33" width="10" height="10" patternUnits="userSpaceOnUse">    <rect width="10" height="10" fill="#4c91bf"></rect>    <rect x="3" y="0" width="3" height="10" fill="#ffff33"></rect>    </pattern><pattern id="checkers_cc3333_f7f7f7" width="8" height="8" patternUnits="userSpaceOnUse">    <rect width="8" height="8" fill="#cc3333"></rect>    <path id="pattern3" fill="#f7f7f7" fill-rule="evenodd" d="M0 0h4v4H0V0zm4 4h4v4H4V4z"></path>    </pattern><pattern id="texture_d1dbdd_525252" width="4" height="4" patternUnits="userSpaceOnUse">    <rect width="4" height="4" fill="#d1dbdd"></rect>    <path id="pattern5" fill="#525252" d="M1 3h1v1H1V3zm2-2h1v1H3V1z"></path>    </pattern><style id="map-style">svg { background-color: #fff; }</style></defs><g id="g1081"><path id="Madhya_Pradesh" d="M329.1587 401.6139c-.4533-.0038-.9406.1586-1.5563.6043-1.6431 1.1937-1.4203 2.1645-3.7358 2.3156-2.3118.151-4.0305 1.118-5.598 1.118-.0718 0-.2305-.015-.3174-.015.5364 1.0652.9822 2.1229-1.3447 2.2286-2.5762.1171-2.8104.4684-3.513 1.171-.7026.7064-.9405 1.171-2.3457 1.409-1.4052.2342-2.1078.7026-2.1078.7026s.5855.9367 0 1.5222 0-.5855-1.526.2342c-1.5223.8197-3.0446 1.5261-3.513 1.5261-.4684 0-1.8774-1.6432-3.8718.7026-1.9907 2.342.1208 2.8104-2.1078 3.6338-2.2287.816-5.8587 1.6394-6.3271 2.4591-.4684.8197-.7026 1.7565-1.5223 2.1078-.8197.3513-3.1654.5893-3.751 1.0577-.5854.4683 0 1.6393-.4683 2.6932-.4684 1.0577-.2342.9406-.9368 1.526-.7064.5856-.2342.8198-1.0577 1.4053-.816.5855-1.171.3513-3.2788.5855-2.1077.2342-3.1654.7026-3.2825 1.7564-.1133 1.0577-.2342 2.8142-1.5223 3.868-1.288 1.0577-.7026 2.342 0 3.751.7026 1.4052-.5855 3.6338 1.4052 4.922 1.9907 1.288 4.1022 2.2286 5.7416 3.6338 1.6432 1.4052 1.6432 2.342 3.9852 2.342 2.342 0 3.1654.9367 4.4535 0 1.288-.9368 1.6394-.9368 3.1654-.7026 1.5223.2342 1.7565 1.0576 2.2287.117.4646-.9367 1.2843-3.2787 2.104-3.5129.8197-.2342.9405-1.171 1.6431-.2342.7026.9368.1133 1.6394.3513 3.1617.2342 1.5222.3513 1.6393 1.054 1.9906.7025.3513 1.4051.8197.8196 1.5261-.5855.7026-1.288-.2342-.8197 1.0539.4684 1.288 1.0577 1.6431.5855 2.1116-.4684.4683-1.8736 1.2843-2.6933.8196-.8196-.4684-1.8773-.9405-2.342-.8196-.4721.1133-3.2825 1.5222-4.6914 1.6393-1.4052.1171-3.0446-.5855-4.3365.1134-1.288.7063-1.9907 3.5167-1.5222 4.1022.4721.5855.8196 1.1748.2341 1.8773-.5855.7026-1.6393.1134-1.0576 1.171.5892 1.0577 1.8773.5855 3.1654 1.409 1.2919.8197 2.342 2.342 2.2287 4.684-.1171 2.342.3513 3.985-.9368 4.1022-1.2881.117-3.3997 0-4.4573-.7026-1.054-.7026-1.8736-1.6394-1.987-.9368-.117.7026-.5854.5855.2343 1.7565.8197 1.171.9368.9405.8197 2.1115-.1171 1.171-.4684 1.2881-.3513 2.342.1133 1.0577-1.171.4722.4684 1.288 1.6431.8198 1.9906 1.292 1.6394 2.6971-.3514 1.4052-.5856 1.9945-.5856 2.9313 0 .9368-1.171 2.2249-1.5222 1.6394-.3513-.5855 0-1.4052-.9406-1.5223-.9368-.1171-1.4052.2342-2.342-1.0577-.9368-1.2843-.4684-2.2249-.3513-2.8104.1171-.5855.4684-2.459-1.2918-1.0538-1.7565 1.4051-2.5762 2.5761-2.4553 3.2787.1133.7026-1.1748 1.171-1.7603.3551-.5893-.8197-1.0577-2.2287-3.2863-1.9945-2.2249.2342-4.9181.7026-5.2694.1171-.3513-.5855.4683-1.8735-.8197-2.2286-1.2881-.3513-2.342.1209-2.342 1.526 0 1.4052.7026 2.6933 0 3.868-.7064 1.171-3.0484 3.1655-4.106 3.513-1.054.3551.3513.9406-1.171 2.2287-1.5223 1.288-1.9907 2.4629-2.8142 2.4629-.8196 0-2.6932-1.5261-3.3958-1.292-.7026.2343-.5855 1.292-.5855 2.2287 0 .9368-.4684 1.7565-1.2881 1.054-.8197-.7027-.9406-1.171-1.8774-.8198-.9367.3476-.7026.1134-1.4051-.8197-.7026-.9405-.7026-2.2286-1.7603-2.58-1.0539-.3512-2.2249-.5854-1.171-1.2918 1.0577-.7026 2.2287-.2304 3.2826-.8159 1.0576-.5855 1.171-1.6431 2.1077-1.6431.9368 0 2.342.7025 2.342 1.288s1.526 1.409 2.1153-.3512c.5817-1.7565.816-.5855.2305-2.5762-.5855-1.9945-1.171-2.4629-.5855-3.513.5892-1.0577 2.9312-1.409 2.58-2.2286-.3514-.8197-3.2826-1.171-3.2826-3.0484 0-1.8736.3513-2.5762.9368-2.2286.5855.355 2.9274.5892 3.5167-.6988.5855-1.292 1.288-1.409 0-2.9313-1.288-1.5223-1.288-1.8736-1.288-3.751 0-1.8735.3512-3.1654-.5894-3.0483l-.9368.1209s-1.288 1.288-2.459.9368c-1.171-.3513-1.171-.2342-1.7565.5855-.5855.8197-.5893.8197-1.8774.5855-1.288-.2342-.7026-.5855-1.8735.3513-1.171.9368-1.5223 1.171-2.4629.2342-.9368-.9368-1.6394-1.4052-3.0446-1.4052-1.409 0-2.1115.4684-2.697-.1171-.5855-.5893-1.0539-2.9313-.7026-3.3997.3513-.4684 1.8736-1.171 2.342-.8197.4684.3513.7026 1.171 1.7602.7026 1.054-.4683 1.7565-.5854 1.4052-1.0576-.3513-.4646-1.6394-.2304-2.459-.933-.8197-.7026-1.409-1.0577-.8197-1.409l.5817-.3513s1.0576.355 1.526-.2342c.4684-.5855.7026-3.0446.3513-3.1617-.3513-.117-5.156.5855-5.156.5855s-1.8775 2.4591-2.1116 3.2788c-.2342.8197-.8197 1.8774-1.9907 1.8774-1.171 0-2.4629.9368-3.2826-.3551-.8197-1.2843-2.342-1.7565-2.342-1.7565s-.7025 1.4052.1134 2.1078c.8234.7063 1.1747 1.6431 2.1115 1.9944.9368.3513 1.2919 1.2881.4722 2.2287-.8197.9368-.238 1.2843-1.6431 1.2843-1.4052 0-3.1655.5893-3.2826 1.526-.1133.9406-.2342 1.2844-.9368 2.1078-.7026.8197-.2342 1.2919.7026 2.4629.9406 1.171 2.1116 1.171 1.171 3.2825-.9368 2.1078-1.9907 1.6394-1.171 3.0446.8197 1.4052 1.6432 1.526 2.4629 1.7603.8196.2341-.8197 1.8735.4683 3.7509 1.2881 1.8736 1.9907 1.7565 1.8736 2.5762-.1133.8197-.2342 1.8773-.9368 3.0483-.7026 1.171-1.6393 2.342-.5855 3.6338 1.0577 1.2881 2.1078 1.9907 1.292 3.0446-.8198 1.0577-1.1749 1.8774-.8236 2.697.3513.8197-.8197 1.8736-1.8735 2.2287-1.0577.3475-1.7603 1.054-1.8774 1.6394-.1133.5855-1.5223.7026-3.3996.9368-1.8736.2342-3.9814 1.9907-3.9814 3.0446 0 1.0576-.7026 1.6431-.7026 1.9944 0 .3513.5855.2342 1.7565.5855 1.171.3513 2.1078-.4684 2.9312.8197.8197 1.288 1.6394 2.4629.9368 3.0483-.7063.5855-2.58.8197-3.6338 1.2843-1.0577.4722-1.288-.2304-3.0483.7064-1.7565.9368-2.342 1.526-3.6301 1.6432l-.5364.0415a8.9146 8.9146 0 0 1-.0982.9935c-.2002 1.273.1322 2.0058 1.2692 2.8783 1.137.8688 1.6054.7366 1.6054 2.1418 0 1.4014-1.3372 3.0748-1.4732 3.8756-.1322.8046-.4646 2.478-1.2012 3.0786-.7366.6043-.1322 1.8736-1.7376 1.5411-1.6092-.34-1.8736-.7403-2.6782-.34-.8008.4043-1.4731 1.9416-1.4052 2.478.068.5364-.1322.6044-.4684 1.1332-.3323.5364.068 1.0728 1.0728 1.8774 1.0048.8008 1.3372 1.5374 1.4052 2.1418.0642.6006-.6686 1.8056-1.8736 1.6016-1.205-.2002-1.6733-1.1332-2.342-1.4014-.6685-.2682-2.138 0-2.0737.8008.068.8046.7366 4.3478 1.6054 5.617.8688 1.273 1.4731 2.41 1.4052 3.3467-.068.9368-.4684 3.5432-.4684 4.0796a1.3032 1.3032 0 0 1-.1436.5175c3.6754 2.4062 3.1579-1.1181 5.855-.578 2.8443.5666 2.8443-3.2183 4.548-4.3553.321-.2115.5665-.2946.7554-.2682l.0038.034c.1888.0265.3248.1625.4193.3702.442.5704.321 2.2287.4495 3.6452.0377.4457.1095.6346.1888.7743.34.2267.9595-.4193 2.1645.782.0377.0377.0453.0868.0793.1246l.0302.0227c1.7036 1.7074-.9481 4.359 0 6.2553a2.4968 2.4968 0 0 0 .306.457c1.0199 1.0842 2.5988.5893 3.751 2.2363.0604.083.049.0604.102.1398l.0075.0113c.6043.8574.8121 1.2012 1.0312 1.4165.238.1813.476.136 1.1332.136 1.3259 0 2.6517-1.3221 4.7368-.7555 2.0814.5704 1.7036.7593 3.5999 2.6555.5213.5213.8046.8424.9859 1.0954.6308.797.2002.8537.6421 2.4591.272 1.0086.2796 1.6356.4306 2.021.189.2832.51.3814 1.3524.2983 1.8924-.1888.3777-1.9 4.1664-1.3296 3.7887.5666 5.8738 1.137 7.1997 0 1.3258-1.1332 2.0851-.5666 3.9776.3815 1.8962.9443 1.511.1889 6.0627-.1926 2.3268-.1927 3.8529.4646 4.7935 1.73.982 1.2088 1.3787 3.0219 1.3787 5.2392 0 2.138-.1775 2.9955-.1171 3.275.17-.0151.5515-.3022 1.3334-.5817 2.0813-.7555 3.2221.1889 4.9257.9443 1.7036.7593.5666-.185 1.322-1.8886.7631-1.7037.3816-1.3297 4.3592-1.9 3.9813-.5667.9481-1.3222 1.1408-4.5443.1888-3.222.5666-1.511 2.2702-2.8406 1.7036-1.3258 1.137-1.5147 1.137-2.6517s.5666-.5704 1.7073-2.2777c1.1332-1.7036 1.5148-1.6998 3.0295-3.9738 1.5147-2.274 5.3072-.3778 9.2848 0 3.9776.3777 1.322-1.137 2.8406-2.8406 1.5147-1.7074 5.496.3777 7.1997 1.1332.3021.136.4759.287.6081.4533.0453.0378.0605.083.0944.1246.0151.0303.0491.053.0643.0831.5288.763-.2418 1.9076.6686 4.0343 1.1332 2.6517-.189 1.8924-.7593 2.6517-.5666.7555-2.0851.1889-3.2183.9481-.5402.3589-.4609.68-.1511 1.0766.3626.4117.9217.9065 1.3674 1.6167.9443 1.5185 2.6517 2.0851 4.1664.7555 1.5148-1.3221 3.411-.1889 6.4405 0 3.0332.1926 2.6517-.1889 5.1145-1.1332 2.4629-.9444 3.0333-.7555 4.7369-3.0333 1.7074-2.2702 3.411-2.274 7.1997-.9443 3.7887 1.322 2.274 2.0813 5.1145 3.222 2.8444 1.1333 6.0627-.1926 7.0108-.3852.9444-.1889.189-1.8925 1.3259-4.1665 1.137-2.274 3.411-.9443 6.4442-.9443 3.0295 0 1.1332-2.0851 1.8887-2.6517.7593-.5666 2.6555.9443 4.3591 1.8887 1.7074.9519 3.2221.763 4.5517 1.8962 1.3221 1.137.9444 1.7074 3.9738.1889 3.0333-1.5148 2.8406.5704 5.1146.948 2.274.3778 3.411.3816 4.9257-.5665 1.5185-.9444 6.0627-1.8925 8.907-2.0814.6044-.0415 1.0237.0378 1.36.1776l.3248-.0869 3.698 1.9718c2.969 4.1022 3.7472 2.3344 5.515 3.2561 1.7678.9179.7102 6.3649.2833 7.2828a1.9642 1.9642 0 0 1-.5477.6875l.083.4948s.7556-.3777 2.0852-2.0813c1.322-1.7074.7555-1.7074.7555-4.1703 0-2.4628 0-1.137 1.5185-3.9775 1.511-2.8444-1.3297-4.3554 0-5.3035 1.322-.9443 1.511-.9481 2.4628-2.085.9444-1.1333-.7592-.189-1.7073-.9444-.9444-.7593-.3778-1.7074.7554-2.0851 1.1408-.3778.7593-2.2778 1.1408-3.7888.3777-1.5185 1.7036-1.3296 2.6517-.948.9444.3777 2.274-.7555 2.0851-2.463-.1888-1.7073.5666-1.137.5666-1.137h1.326l1.3258-2.2739s1.8962.1889 2.274-.7555c.3777-.9481-.5667-1.8962-1.137-3.411-.5666-1.5185.3777-.9443 2.274-.9443 1.8962 0 .1888.7555 2.4628 1.511 2.274.7554 2.4628 0 2.8444-1.1333.3777-1.137-.5742-.9519 1.322-1.5185 1.8963-.5666 1.3259.5666 2.4667.5666 1.1332 0 .9443-1.1332 2.0775-1.6998 1.1408-.5704 2.089-.5704 1.7112-.7592-.3778-.1889.1889-3.6037 2.0813-3.411 1.8963.1889 4.1665-.7593 3.9776-1.5185-.1889-.7555-2.6517-1.7036-3.785-3.7887-1.137-2.0851 2.2665-1.1332 3.5961-2.2702 1.3221-1.137 0-1.137 0-2.0851 0-.9482 1.137 0 2.274-.5666 1.1332-.5704 2.274-.3816 3.9776 0 1.7074.3777 2.0851-.3778 2.274-1.8963.1888-1.5147.3777-2.0851 1.7036-3.411 1.3258-1.322 1.3258-1.1332 0-2.4628-1.3221-1.322-.5666-1.7036-1.3221-2.8406-.763-1.137-2.4629.7555-4.548 1.137-2.0813.3777-1.3258-.5666-2.085-2.8444-.7556-2.274-2.463-2.0813-3.411-3.0294-.9444-.9444-3.0295.1888-4.3554 1.3258-1.3258 1.137-3.0332 0-2.8443-.9443.1888-.9481 2.274-1.7074 3.0332-2.8444.7555-1.1332.1889-1.8962 0-2.8406-.1889-.948-1.7036-2.4628-1.7036-2.4628l-.1889-2.0851s1.3221 1.137 2.2702 3.0332c.9482 1.8925.7555.1889 2.6517.5666 1.8963.3777 2.274-1.7074 2.274-2.8406 0-1.1407 1.137-.9481 1.8963 0 .7555.9444 2.085 1.7036 2.8406 1.7036.7554 0 1.5147.3778 3.222 1.1332a25.6333 25.6333 0 0 0 3.0295 1.1408s1.5147-1.5147 2.4629-1.5147c.9443 0 1.7074-.7555 1.7074-1.3297 0-.5666 1.7035-.1888 2.6517.5704.9443.7555 2.4628 1.3259 2.4628 1.3259l2.0813-2.4629.5667-.9443s-.189-1.5185-1.511-2.274c-1.3296-.7555-3.7925-3.0332-3.7925-3.0332h.9444l4.5517-.3778.7555-1.3258.2342-.6309c-.6535-.151-.8461-.6043-1.5827-1.2163-.8953-.7441-1.8623-1.2692-2.3118-2.017-.4495-.7442-.8235-3.1353-.2266-3.955.5968-.8197 0-1.7905.9707-2.1644.9746-.374 1.4203-.4496 2.4667-1.0464 1.0425-.5968 1.4165-.8197 1.118-.967-.2983-.151-1.1936-.3022-2.3872-.3777-1.1937-.0718-1.866.2266-1.866-1.4165 0-1.6432.374-2.4629 0-2.9842-.374-.525-.0756-1.9415.3701-2.4666.4495-.5213-.4457-.5213-.2984-1.2692.1511-.7441 1.8698-1.341 1.9416-1.715.0755-.3739-.6724-.5212-2.3118-1.5675-1.6431-1.0464-2.1644-1.7188-2.5384-1.0464-.374.6724-.6006 1.9416-1.9415 1.1181-1.3448-.8197-1.4921-2.2362-2.6895-1.6394-1.1937.5969-1.1181 1.4921-1.1181 2.3118 0 .8235.151 1.8698-.9708 1.1219-1.1219-.748-1.6432-2.0171-2.7613-2.3911-1.118-.3702 0 .8235-1.4203-1.5676-1.4165-2.3873-.8952-2.9086-2.7612-2.9086s-2.3873.4457-2.9842-.3022c-.6006-.7441-.4495.1511-2.24-1.7905-1.7942-1.9415-1.7187-2.24-3.6602-2.3873-1.9416-.151-1.715-.5968-3.1353-1.5676-1.4165-.9708-1.4203-.8234-2.614-.8234-1.1936 0-1.3409-1.0426-1.2691-1.4921.0755-.4457 1.5714-2.24.151-1.9416-1.4202.3022-1.492.8953-2.017 1.1975-.5213.2984-2.3118.9707-3.3581.2228-1.0464-.748-1.7905-1.866-2.5384-.8952-.7442.967-.8953 1.7149-.5968 2.4628.2984.748-.2985.5213-.748 1.1937-.4457.6723-.5212.5968 0 1.4165.525.8235 1.1975 1.5714 0 1.9416-1.1936.3777-3.1352.4495-4.7028 0-1.5676-.4458-3.732-.1511-4.8502-.1511-1.1218 0-2.3155-.967-2.1644-2.0851.1511-1.122.5213-1.0464.8953-2.0172.3701-.9708 1.118-2.017.8196-2.3155a7.4414 7.4414 0 0 1-.7479-1.0425s-.6686-.3022-1.341.3701c-.6723.6724-1.1974.6006-1.8698.8235-.6723.2266-1.492.4457-1.0425 1.4203.4457.967 1.5676 1.4883.4495 1.6394-1.1219.151-1.9416.5968-2.1644-.5213-.2267-1.1219.8914-2.3155-.6762-1.9416-1.5676.374-2.3118.374-2.2362.8953.0755.525-.1511.5968-.3777 1.0463-.2191.4457-.1474.748-.1474 1.1181 0 .3777-1.0463 1.3447-1.7904.374-.748-.9708.151-1.9416-1.7943-1.0464-1.9416.899-3.5054 1.3448-3.1352-.2228.3777-1.5677 1.273-1.1181 1.6431-2.6895.3778-1.5639-.6685-4.8502-1.5638-5.9683-.899-1.1219-.748-1.8698-1.4958-2.1682-.7442-.2984-1.9416-.2984-2.0172.3777-.0755.6686.4496 1.0426-.5212.967-.9708-.0755-.3022-.5968-1.9416-.4495-1.6432.1511-2.6895 1.0464-2.5384 1.6432.1511.5968-.6686 1.5676-1.492 1.7187-.8198.1511-2.3912-.6724-2.4667.3702-.0755 1.0463.4533 3.4374.0755 4.1098-.3701.6686-3.5053.593-5.0012.3702-1.492-.223-1.492-.4458-2.7575-1.1182-1.273-.6723-1.5714.5969-1.5714.5969s-.0755.5968-.9708 1.1936c-.8952.5969-.6685.0756-1.341.1511-.6723.0756-1.1218 1.0426-1.1218 1.0426s-1.4203-.0756-1.3448-1.866c.0756-1.7905.8953-1.5639 1.5677-2.089.6723-.5212 2.6895-.744 1.1974-1.7149-1.4959-.9745-2.8406-1.7942-3.2863-.899-.4533.8953-.4495.6006-1.4921 1.1975-1.0463.5968-1.3447.8952-.9708 1.492.374.5968-1.4203 1.1181-2.24.8197-.8197-.3022-.6723.6724-.9708 1.1219-.3021.4457-.7479.4457-.8952-.1511-.151-.5968.4457-1.4165-.5968-1.0463-1.0464.3777-1.1181.899-1.7187-.6686-.5969-1.5676-1.1181-3.6603-1.7905-2.9124-.6724.7441-2.0889 1.9416-2.7613 2.0889-.6723.151-1.4203-.2984-.9708-.8197.4458-.5213 1.1937-.3022.8197-1.3447-.374-1.0464-.6723-1.2692-.9708-1.7905-.3021-.525-.8952-2.3156.748-2.6895 1.6431-.374 2.5384.151 2.3117-.8952-.2228-1.0426 0-.8953-.5212-1.4166-.5213-.5213-.8197-2.4666-1.4921-2.1644-.6724.2946-1.1937.2229-1.1181 1.4883.0755 1.2692-.4495.899-1.1219 1.1974-.6724.2984-.5213.9708-.374 1.5676.1511.5968-.0755 2.3118-1.3447 2.3118s-1.715.0755-2.6102-1.2654c-.899-1.3448-1.0463-1.866-1.6431-.9708-.5969.8952-.6724 1.7149-1.0464 2.1644-.374.4457-1.118-.151-1.7149.8952-.5968 1.0464-1.4958 2.0134-1.1219 2.3873.374.374 2.0171.5969 3.0597 1.4203 1.0463.8197 2.4666 2.3156 2.4666 2.3156s-.0755 1.2692-.2266 2.0889c-.1511.8234-.5969 2.4628.3022 3.2863.8914.8197 2.6101 2.3873 2.833 2.9841.2267.5968.3022.6724-.0755 1.5676-.3702.8953.3022 3.732.7479 4.106.4495.374 1.866.5969 2.0926.2229.223-.374 1.6394.374 1.6394 1.7905 0 1.4203-.4457 2.6177.2267 3.4374.6723.8197-.2267 2.5384-.4495 3.5092-.2267.967-1.4921 2.6895-1.5677 3.2107-.0755.5213-1.0463 2.089-1.0463 2.089s-1.1936-1.5677-2.0133-1.7905c-.8235-.2267-1.7905.3701-1.7905.3701s-1.6432-1.118-2.614-2.6857c-.9707-1.5676-1.6431-2.614-2.3155-2.7612-.6724-.1511-1.866.5175-2.0889 1.118-.2266.5969-1.492 2.9124-2.017 2.8407-.5214-.0756-.748-2.614-.748-3.5885 0-.967-5.0768-4.7747-4.1778-6.8673.8952-2.089 1.492-2.3873.8952-3.2108-.5968-.8197-.9707.748-1.4202-1.4165-.4458-2.1682 0-1.7187-.4458-2.614-.4495-.8952-.8952-.8196-.8952-1.6393 0-.8235 1.0463-1.273 1.7905-1.5677.7479-.3021 2.1644-1.4958 2.7612-2.3155.5969-.8235 1.4203-1.1219 1.4203-2.765 0-1.6394-.2266-2.0134.0756-2.7575.2984-.748.0755-1.0501-.3778-1.7225-.4457-.6686-1.492-3.358-.8952-4.4762.5968-1.1181 1.1974-2.7613 1.866-4.0305.6724-1.2692 2.1682-2.6894 3.0635-2.4628.8952.2229 2.4628.8914 3.4374.593.967-.2946 4.0267-1.492 4.4762-2.1644.4495-.6724 1.4165-1.0425.8952-1.9378-.525-.8952-2.24-.374-1.5676-1.9416.6724-1.5676 1.4203-1.6431 2.0889-1.7904.6724-.1511 1.7942 0 1.7942-.6007 0-.5968 0-.744-.0755-1.6431-.0756-.8952.4457-1.4883.967-2.5346.525-1.0464 1.7943-1.5714 1.7225-2.614-.0756-1.0463-.6044-1.273-.748-2.24-.151-.9707 1.1937-2.0926 1.7905-3.4374.5969-1.341 1.4921-.7441 2.0927-1.7904.5968-1.0426 1.7905-1.5639.6686-3.8794-1.118-2.3156-1.7905-2.8368-2.2362-3.9587-.4533-1.1181.1473-2.3873-1.5714-3.581-1.715-1.1936-3.7283-2.391-4.6273-2.614-.8952-.2266-.8234-.8196-1.7905-1.2691-.9707-.4495-.9707-1.4165-2.8368-1.1181-1.866.2984-1.4203 1.118-2.24.967-.8234-.1511-1.1218-.8197-2.6139-1.492-.933-.4156-1.5752-.8953-2.323-.9066Z" style="font-variation-settings: normal; vector-effect: none; fill: rgb(204, 51, 51); fill-opacity: 1; stroke: rgb(0, 0, 0); stroke-width: 0.99943; stroke-linecap: butt; stroke-linejoin: miter; stroke-miterlimit: 4; stroke-dasharray: none; stroke-dashoffset: 0; stroke-opacity: 1; stop-color: rgb(0, 0, 0);" data-originalStrokeWidth="0.99943" fill="#cc3333" stroke="#000" stroke-width="0.99943"></path></g></svg></g></svg>
