<?xml version="1.0" standalone="no"?>
<!DOCTYPE svg PUBLIC "-//W3C//DTD SVG 20010904//EN"
 "http://www.w3.org/TR/2001/REC-SVG-20010904/DTD/svg10.dtd">
<svg version="1.0" xmlns="http://www.w3.org/2000/svg"
 width="500.000000pt" height="500.000000pt" viewBox="0 0 500.000000 500.000000"
 preserveAspectRatio="xMidYMid meet">
<metadata>
Created by potrace 1.14, written by Peter Selinger 2001-2017
</metadata>
<g transform="translate(0.000000,500.000000) scale(0.100000,-0.100000)"
fill="#000000" stroke="none">
<path d="M2431 4334 c-84 -90 -101 -120 -110 -188 l-6 -49 -46 39 c-26 21 -57
56 -70 76 -13 21 -27 38 -32 38 -4 0 -7 -150 -7 -332 0 -183 0 -338 0 -345 0
-6 -39 -37 -87 -69 -113 -75 -222 -179 -290 -276 -30 -43 -56 -78 -58 -78 -9
0 46 165 66 199 39 65 239 283 269 293 8 3 13 8 10 11 -8 8 -84 -30 -145 -73
-66 -46 -80 -57 -131 -110 -24 -24 -44 -39 -44 -31 0 14 28 68 46 87 6 7 21
25 35 40 13 16 57 58 97 93 40 35 70 66 68 68 -9 9 -182 -83 -227 -121 -24
-20 -63 -50 -103 -79 -17 -13 -17 -14 12 -26 32 -13 49 -42 37 -62 -5 -7 -12
-3 -21 9 -18 26 -59 35 -87 21 -26 -14 -57 -48 -57 -63 0 -6 -4 -6 -12 2 -15
15 28 80 60 88 12 4 22 10 22 15 0 14 167 180 228 227 28 22 61 44 72 47 11 4
20 10 20 15 0 21 -142 -48 -255 -124 -81 -54 -225 -187 -225 -209 0 -4 -4 -6
-9 -2 -5 3 -26 -10 -45 -29 -35 -32 -49 -51 -120 -156 -16 -25 -32 -47 -35
-50 -15 -13 -83 -145 -114 -220 -35 -87 -98 -276 -102 -311 -2 -15 -9 -47 -15
-71 -7 -24 -14 -51 -16 -61 -2 -10 -5 -26 -8 -35 -3 -9 -7 -37 -11 -62 -3 -25
-7 -54 -9 -65 -3 -11 -5 -36 -7 -55 l-2 -35 -6 35 c-9 47 0 243 14 310 3 14 8
41 11 60 3 19 10 53 16 75 5 22 12 47 13 55 11 47 53 159 98 255 176 382 529
703 915 829 52 18 54 20 54 76 0 34 -1 38 -17 44 -33 12 -263 -85 -410 -174
-287 -174 -544 -479 -680 -806 -43 -104 -100 -323 -116 -444 -12 -98 -15 -311
-5 -377 3 -21 8 -56 11 -78 14 -108 72 -328 107 -405 41 -91 86 -176 125 -235
21 -33 52 -81 68 -106 17 -26 68 -88 115 -139 111 -121 104 -115 169 -163 31
-23 58 -44 61 -47 71 -71 270 -178 466 -249 95 -34 139 -46 289 -77 67 -14
370 -12 460 2 367 60 712 230 930 459 129 135 174 192 230 285 21 36 42 67 46
70 15 10 117 235 134 295 10 33 24 80 31 105 64 215 77 522 33 755 -37 196
-108 390 -198 542 -31 52 -64 109 -74 126 -29 48 -134 173 -211 251 -168 168
-409 319 -635 395 -71 24 -87 19 -92 -29 -5 -43 9 -67 42 -74 93 -18 342 -149
449 -235 25 -20 54 -43 65 -51 30 -22 165 -158 208 -210 122 -144 248 -389
300 -585 37 -140 24 -314 -33 -440 l-27 -60 -1 45 c-1 79 -13 158 -27 176 -11
15 -14 10 -24 -42 -6 -32 -14 -72 -17 -88 -3 -15 -15 -42 -25 -60 l-20 -31 5
30 c8 45 14 84 21 145 3 30 8 62 10 70 2 8 7 56 10 105 3 50 8 108 11 130 10
87 12 275 3 281 -16 9 -37 -15 -45 -49 -25 -116 -180 -368 -308 -502 l-87 -90
7 90 c12 159 7 375 -11 485 -9 57 -44 170 -75 244 -72 171 -171 257 -299 258
-51 1 -85 -10 -163 -50 -5 -2 -8 5 -8 17 0 11 -8 24 -17 30 -17 9 -18 36 -20
318 -2 404 -1 393 -16 368 -17 -28 -122 -135 -133 -135 -5 0 -10 18 -11 40 -2
64 -33 115 -129 217 l-51 54 -72 -77z m109 -81 c18 -20 39 -51 46 -69 17 -41
18 -120 2 -130 -8 -5 -9 2 -5 25 4 20 3 30 -3 26 -6 -3 -10 5 -10 18 0 32 -23
86 -50 117 -23 27 -24 27 -60 -42 -19 -36 -32 -91 -32 -137 0 -39 -20 -7 -25
42 -4 29 0 56 11 78 19 40 73 109 86 109 4 0 22 -17 40 -37z m-316 -202 c13
-11 43 -21 76 -25 105 -12 177 -92 184 -205 3 -52 -7 -69 -17 -28 -11 40 -106
135 -173 173 -35 20 -68 43 -73 52 -8 14 -9 12 -7 -8 1 -14 5 -30 9 -36 3 -6
8 -22 11 -36 5 -28 34 -78 51 -90 5 -4 19 -13 30 -22 20 -15 20 -15 -1 -10
-42 11 -91 61 -102 106 -15 57 -24 148 -15 148 4 0 16 -9 27 -19z m584 -44
c-6 -70 -30 -133 -62 -159 -31 -26 -43 -22 -18 5 21 22 77 167 65 167 -4 0
-14 -6 -22 -14 -9 -8 -39 -27 -68 -43 -78 -43 -133 -97 -165 -163 l-17 -35 0
53 c-1 57 20 108 63 155 30 32 61 45 124 52 26 3 58 14 72 25 14 10 27 19 29
19 2 1 1 -27 -1 -62z m-573 -261 c11 -5 34 -10 50 -12 76 -9 96 -17 131 -52
43 -43 63 -86 68 -148 5 -52 -4 -56 -23 -11 -22 48 -99 118 -166 151 -33 17
-66 37 -73 45 -10 14 -12 10 -9 -24 4 -54 32 -108 75 -146 30 -27 32 -30 11
-24 -43 13 -109 91 -92 109 4 3 2 6 -4 6 -6 0 -11 31 -12 73 -1 59 1 69 11 56
7 -8 22 -19 33 -23z m577 4 c-2 -17 -7 -29 -9 -26 -3 3 -20 -5 -37 -18 -17
-13 -53 -34 -79 -45 -58 -27 -94 -60 -136 -125 l-31 -50 0 42 c0 52 22 108 58
145 38 40 56 48 130 57 45 6 71 15 86 29 11 12 21 21 21 21 1 0 0 -14 -3 -30z
m-11 -120 c-6 -20 -19 -44 -29 -53 -16 -14 -15 -6 8 61 18 56 26 70 28 52 2
-13 -1 -40 -7 -60z m-522 -190 c117 0 195 -80 206 -211 3 -27 3 -49 1 -49 -2
0 -14 19 -26 43 -28 54 -109 132 -165 158 -25 12 -45 26 -45 32 0 6 -3 7 -7 4
-3 -4 -12 1 -19 11 -12 16 -13 16 -15 -3 -1 -11 0 -24 1 -30 2 -5 4 -17 5 -25
5 -33 26 -71 62 -112 l38 -42 -34 19 c-63 37 -90 96 -91 198 l0 48 26 -20 c16
-13 41 -21 63 -21z m510 -134 c-20 -44 -51 -76 -73 -76 -6 0 -1 7 11 15 40 28
94 185 64 185 -6 0 -11 -4 -11 -9 0 -5 -17 -16 -37 -26 -95 -41 -163 -101
-203 -175 -17 -32 -29 -8 -20 38 11 54 25 84 56 121 33 39 63 53 128 56 50 3
95 21 98 39 1 6 3 -19 5 -56 3 -52 -1 -76 -18 -112z m246 -264 c0 -384 -2
-421 -26 -422 -4 0 -7 55 -7 123 0 67 -1 149 -1 182 -4 140 2 408 9 438 4 18
11 46 14 62 l7 30 -20 -24 c-12 -13 -21 -20 -21 -16 0 3 -12 -3 -27 -15 -29
-22 -47 -89 -21 -75 7 3 4 -1 -6 -9 -18 -14 -15 -21 7 -17 4 1 3 -8 -3 -19 -8
-15 -8 -20 1 -20 8 0 8 -4 -1 -15 -10 -12 -10 -15 1 -16 12 0 12 -1 0 -6 -11
-4 -11 -7 0 -13 10 -7 10 -12 0 -23 -9 -12 -9 -16 0 -19 8 -3 9 -9 4 -18 -12
-19 -13 -60 -2 -60 5 0 4 -7 -3 -15 -9 -11 -9 -15 -1 -15 7 0 9 -5 5 -12 -11
-18 -14 -58 -4 -58 5 0 5 -13 0 -30 -6 -21 -5 -30 3 -30 8 0 7 -3 -2 -9 -9 -6
-10 -11 -2 -15 7 -5 8 -13 1 -25 -6 -12 -5 -22 3 -31 10 -10 8 -12 -7 -6 -14
5 -16 3 -9 -6 14 -18 23 -59 12 -52 -11 6 -11 6 0 -34 6 -18 6 -30 2 -28 -4 3
-7 -11 -7 -29 1 -19 5 -35 9 -35 4 0 3 -9 -3 -20 -6 -12 -7 -20 -1 -20 14 0 1
-38 -15 -44 -13 -5 -14 50 -12 392 l3 399 29 37 c15 20 30 35 33 32 3 -3 15 1
26 9 12 8 23 12 26 9 3 -3 6 -189 6 -412z m-1449 315 c20 -18 25 -29 20 -45
-7 -22 -26 -31 -26 -13 0 18 -31 41 -55 41 -14 0 -34 -13 -50 -31 -17 -21 -30
-28 -36 -22 -6 6 -5 14 6 23 8 7 15 16 15 21 0 5 8 18 17 29 24 27 75 26 109
-3z m484 -46 c-5 -11 -15 -23 -22 -27 -7 -5 -8 -2 -3 7 21 37 44 55 25 20z
m-575 -81 c21 -12 30 -25 31 -43 1 -33 -6 -34 -40 -2 -35 33 -61 32 -96 -4
-38 -37 -45 -28 -17 22 33 59 55 64 122 27z m532 5 c0 -8 -4 -12 -9 -9 -5 3
-6 10 -3 15 9 13 12 11 12 -6z m-21 -30 c-1 -9 -6 -15 -12 -15 -9 0 -13 19 -6
33 6 12 20 -2 18 -18z m271 -60 c92 -6 150 -45 185 -124 17 -40 33 -131 22
-131 -2 0 -10 13 -18 29 -27 51 -89 109 -172 160 -45 27 -84 48 -87 45 -6 -6
11 -80 25 -108 5 -11 27 -38 47 -60 l36 -38 -30 15 c-63 32 -95 94 -95 188 0
61 0 62 20 44 12 -10 39 -19 67 -20z m533 -43 c-5 -81 -21 -120 -64 -154 -35
-29 -39 -20 -6 15 29 30 39 55 55 136 l7 34 -33 -21 c-19 -12 -54 -32 -78 -45
-53 -26 -141 -110 -148 -140 -1 -4 -7 -15 -13 -25 -25 -39 -2 99 24 143 37 62
76 87 152 94 40 5 71 14 81 24 10 9 20 17 23 17 3 0 3 -35 0 -78z m-992 -9
c-20 -37 -43 -90 -53 -116 -14 -37 -20 -45 -27 -33 -9 16 27 100 79 181 40 65
41 46 1 -32z m150 31 c4 -29 4 -29 -16 -9 -10 11 -17 26 -14 33 8 22 27 7 30
-24z m-565 -34 c57 -27 79 -64 61 -105 -7 -17 -13 -23 -14 -13 0 25 -47 75
-75 80 -14 3 -25 1 -25 -3 0 -5 -6 -9 -13 -9 -15 0 -58 -45 -51 -54 2 -3 -1
-2 -7 3 -7 6 -4 22 11 52 40 79 45 81 113 49z m510 -61 c4 -15 2 -19 -8 -15
-9 3 -12 0 -8 -9 3 -8 10 -12 16 -8 6 3 7 1 3 -5 -4 -7 -1 -12 6 -13 11 0 11
-2 0 -6 -10 -4 -8 -9 7 -20 20 -14 29 -53 13 -53 -17 0 -22 13 -10 27 9 11 7
12 -8 7 -16 -5 -16 -4 -4 5 13 9 13 11 0 12 -8 1 -18 1 -22 0 -5 0 -8 4 -8 9
0 6 5 10 11 10 5 0 7 5 4 10 -4 6 -11 7 -17 4 -7 -5 -8 -2 -3 6 6 9 4 11 -4 5
-7 -4 -11 -16 -8 -26 3 -12 0 -19 -10 -19 -8 0 -13 6 -10 13 2 6 10 29 18 50
14 41 34 48 42 16z m-546 -111 c24 -12 45 -29 48 -38 7 -22 -15 -81 -22 -60
-10 28 -57 70 -79 70 -38 0 -54 -11 -75 -51 -11 -22 -24 -39 -29 -39 -11 0 16
96 36 127 16 26 56 23 121 -9z m567 -43 c-4 -8 -10 -15 -15 -15 -4 0 -6 7 -3
15 4 8 10 15 15 15 4 0 6 -7 3 -15z m-44 -44 c30 -32 36 -44 32 -70 -2 -17 -9
-31 -14 -31 -5 0 -6 -4 -3 -10 3 -5 1 -10 -4 -10 -15 0 -14 23 2 39 8 10 8 12
0 7 -8 -4 -10 1 -7 18 4 22 0 26 -33 33 -21 4 -41 6 -45 5 -10 -2 -10 20 -2
42 10 26 35 18 74 -23z m329 25 c6 -7 39 -16 75 -18 117 -10 177 -80 190 -223
l4 -39 -19 24 c-10 14 -19 29 -19 33 0 4 -13 22 -30 40 -16 18 -30 35 -30 38
0 7 -61 47 -144 95 -27 15 -47 24 -44 19 3 -6 9 -27 12 -48 8 -52 29 -89 73
-131 37 -35 37 -36 8 -22 -71 35 -94 74 -104 179 -7 68 2 85 28 53z m593 -53
c-4 -75 -36 -144 -75 -164 l-22 -12 22 24 c21 24 41 66 49 104 2 11 6 33 10
49 l6 28 -43 -23 c-119 -65 -155 -98 -227 -205 -10 -16 -12 -12 -9 31 9 127
88 205 208 205 19 0 44 7 55 15 10 8 21 15 24 15 3 0 4 -30 2 -67z m-1490 -52
c49 -16 58 -30 51 -74 -5 -34 -23 -53 -23 -26 0 14 -36 46 -60 54 -25 8 -67
-10 -95 -41 -15 -16 -25 -21 -25 -13 1 30 22 104 31 110 15 9 79 4 121 -10z
m571 -80 c-2 -6 1 -11 6 -11 4 0 7 -15 6 -32 -4 -47 -4 -48 -14 -48 -5 0 -9
16 -9 36 0 19 -2 37 -4 39 -5 5 -45 13 -70 14 -21 1 -25 47 -5 54 16 6 93 -39
90 -52z m1430 -35 c-9 -16 -93 -73 -188 -126 -59 -33 -164 -98 -236 -147 -50
-33 -210 -193 -252 -251 -75 -104 -159 -286 -174 -377 -8 -52 -15 -42 -12 20
3 74 33 213 54 254 8 17 16 33 16 36 0 17 38 90 74 145 75 115 184 209 356
305 106 59 129 69 274 120 50 18 91 33 93 34 2 0 -1 -5 -5 -13z m-1446 -73
c25 -12 33 -21 30 -35 -3 -10 -1 -15 4 -12 5 3 7 -10 5 -31 -5 -42 -15 -58
-18 -29 0 10 -2 24 -3 29 -2 6 -3 18 -4 28 -1 13 -10 17 -44 17 -43 0 -67 13
-67 37 0 18 55 16 97 -4z m390 -19 c73 -7 98 -15 123 -37 52 -46 82 -105 94
-184 5 -38 -10 -44 -23 -10 -17 44 -85 110 -172 166 -93 61 -97 61 -69 -14 11
-29 8 -31 -14 -9 -11 10 -16 34 -16 71 0 55 0 56 20 38 11 -10 37 -19 57 -21z
m551 11 c-1 -14 -6 -25 -11 -25 -4 0 -5 -5 -1 -12 4 -7 3 -8 -4 -4 -17 10
-150 -70 -195 -117 -21 -22 -49 -60 -62 -86 l-24 -46 -1 36 c-1 92 66 207 133
228 17 5 54 12 80 14 27 2 56 12 65 21 21 21 22 21 20 -9z m814 -7 c-32 -61
-103 -158 -123 -171 -10 -6 -19 -17 -19 -23 0 -14 -27 -37 -46 -40 -17 -3 -10
10 28 55 15 18 32 30 38 26 6 -4 7 1 3 11 -5 14 -3 16 11 11 9 -4 15 -3 11 2
-4 8 102 161 112 161 2 0 -5 -15 -15 -32z m-2317 -2 c34 -14 35 -17 35 -68 l0
-52 -27 32 c-19 22 -40 35 -64 39 -32 4 -42 1 -76 -31 l-40 -35 3 42 c1 23 3
50 3 59 1 9 9 19 19 21 38 10 115 6 147 -7z m2339 -118 c-10 -18 -17 -41 -15
-51 1 -9 -5 -20 -14 -23 -9 -4 -14 -12 -12 -18 2 -6 -16 -31 -40 -56 -26 -26
-40 -36 -34 -22 7 12 16 22 22 22 6 0 8 4 4 10 -3 5 3 18 15 30 11 11 18 20
15 20 -3 0 5 17 18 38 13 20 30 52 38 70 8 17 15 28 17 23 2 -5 -5 -25 -14
-43z m-1762 -5 c33 -16 38 -24 44 -68 5 -41 -13 -47 -22 -7 -3 15 -7 32 -9 38
-2 6 -24 10 -52 10 -47 -2 -63 6 -63 32 0 17 64 14 102 -5z m231 -28 c103 -54
192 -124 240 -186 35 -46 70 -146 62 -179 -6 -23 -9 -20 -32 30 -20 43 -59 88
-174 201 -131 128 -159 159 -145 159 1 0 24 -11 49 -25z m-923 -66 c0 -5 -5
-7 -11 -4 -6 4 -9 1 -7 -6 1 -8 0 -15 -5 -16 -4 -2 -7 -1 -7 2 0 3 0 12 0 20
0 8 7 15 15 15 8 0 15 -5 15 -11z m751 -42 c11 -12 19 -35 19 -54 0 -41 -15
-36 -24 7 -5 29 -8 31 -46 26 -22 -3 -44 -7 -49 -10 -9 -6 -33 39 -24 47 3 3
27 6 55 5 37 0 54 -5 69 -21z m60 -91 c-12 -15 -11 -37 2 -47 11 -8 18 -51 6
-44 -5 4 -9 12 -9 19 0 8 -7 19 -15 26 -13 11 -22 10 -52 -4 -36 -17 -37 -17
-54 6 -17 22 -17 23 4 31 12 5 39 7 59 5 24 -2 39 1 42 9 3 7 11 13 17 13 9 0
9 -3 0 -14z m60 -103 c-6 -12 -4 -28 10 -55 22 -43 23 -48 8 -48 -5 0 -7 5 -4
10 3 6 1 10 -6 10 -7 0 -10 3 -6 6 3 4 0 13 -8 21 -13 13 -19 12 -45 -7 l-30
-22 -19 24 c-11 12 -18 24 -17 26 3 2 113 48 124 51 2 1 -1 -7 -7 -16z m64
-104 c-4 -5 5 -28 19 -49 33 -50 33 -65 1 -25 -21 26 -27 28 -44 18 -16 -10
-24 -9 -43 6 l-23 19 30 8 c16 4 36 13 43 21 16 16 26 17 17 2z m616 -205
c-65 -44 -94 -75 -122 -131 -24 -49 -45 -69 -34 -32 25 81 64 133 130 174 66
40 88 30 26 -11z m219 -292 c0 -4 -19 -8 -42 -9 -23 -2 -64 -10 -91 -19 -27
-9 -51 -14 -54 -11 -10 11 56 37 109 43 29 3 55 8 57 10 5 5 21 -6 21 -14z m6
-264 c24 -12 52 -31 62 -42 9 -10 13 -17 7 -14 -66 37 -144 60 -235 72 -47 6
-48 6 -26 15 30 12 144 -6 192 -31z"/>
<path d="M3456 2334 c-5 -14 -4 -15 9 -4 17 14 19 20 6 20 -5 0 -12 -7 -15
-16z"/>
<path d="M2943 3838 c-12 -15 -9 -46 6 -61 18 -18 63 9 59 36 -5 36 -44 51
-65 25z"/>
<path d="M3050 3785 c-15 -18 -6 -61 14 -68 17 -7 56 19 56 38 0 17 -27 45
-44 45 -8 0 -19 -7 -26 -15z"/>
<path d="M3146 3724 c-29 -29 -15 -64 28 -67 38 -3 54 22 38 57 -13 29 -43 34
-66 10z"/>
<path d="M3246 3651 c-35 -39 -1 -95 43 -72 38 21 36 61 -4 79 -18 9 -26 7
-39 -7z"/>
<path d="M3343 3570 c-41 -16 -41 -84 0 -99 44 -16 75 14 65 65 -5 25 -39 44
-65 34z"/>
<path d="M3517 3456 c-3 -8 2 -21 12 -30 16 -15 20 -15 31 -1 7 8 10 22 6 30
-7 19 -42 20 -49 1z"/>
<path d="M3396 3434 c-23 -22 -20 -60 6 -84 26 -24 37 -25 66 -4 43 30 18 104
-36 104 -11 0 -28 -7 -36 -16z"/>
<path d="M3597 3378 c-24 -18 -12 -50 16 -46 26 4 31 19 15 41 -11 15 -16 16
-31 5z"/>
<path d="M3478 3294 c-37 -19 -42 -61 -12 -91 32 -32 73 -28 94 10 13 24 13
30 0 53 -20 35 -49 45 -82 28z"/>
<path d="M3637 3270 c-6 -23 14 -43 37 -34 17 7 19 14 10 38 -9 22 -41 20 -47
-4z"/>
<path d="M3682 3173 c-13 -26 -4 -43 23 -43 25 0 38 21 29 45 -8 21 -41 19
-52 -2z"/>
<path d="M3516 3124 c-9 -8 -16 -18 -17 -22 0 -4 -2 -16 -4 -27 -11 -59 102
-82 120 -24 20 63 -55 118 -99 73z"/>
<path d="M3710 3045 c0 -26 18 -33 37 -14 16 16 5 39 -18 39 -14 0 -19 -7 -19
-25z"/>
<path d="M3559 2941 c-21 -16 -22 -22 -11 -45 15 -33 56 -36 72 -5 14 25 8 44
-19 58 -15 8 -24 7 -42 -8z"/>
<path d="M3567 2796 c-9 -22 18 -40 33 -22 6 9 9 20 5 26 -9 15 -32 12 -38 -4z"/>
</g>
</svg>
